<svg xmlns="http://www.w3.org/2000/svg" version="1.0" width="500.000000pt" height="500.000000pt" viewBox="0 0 500.000000 500.000000" preserveAspectRatio="xMidYMid meet">

<g transform="translate(0.000000,500.000000) scale(0.100000,-0.100000)" fill="#6366f1" stroke="none">
<path d="M1220 3195 l0 -1395 400 0 400 0 0 530 0 530 180 0 179 0 266 -530 266 -530 465 0 465 0 -45 83 c-24 45 -189 350 -366 677 l-321 594 23 31 c110 147 133 198 392 844 l224 561 -436 -2 -436 -3 -132 -370 c-73 -203 -147 -398 -165 -433 -39 -78 -113 -146 -182 -168 -36 -12 -101 -18 -214 -22 l-163 -4 0 501 0 501 -400 0 -400 0 0 -1395z" fill="#6366f1"/>
<path d="M1212 1313 c5 -240 7 -265 31 -358 104 -387 383 -612 737 -592 229 13 427 134 532 325 l40 73 33 -48 c176 -262 571 -352 866 -197 208 110 341 335 379 644 5 46 10 158 10 247 l0 163 -274 0 -273 0 -6 -87 c-9 -140 -40 -206 -116 -251 -40 -24 -56 -27 -133 -27 -80 0 -90 2 -130 30 -66 46 -98 118 -105 239 l-6 96 -262 0 -262 0 -6 -122 c-6 -141 -22 -199 -70 -248 -48 -50 -101 -70 -182 -70 -113 0 -181 43 -225 143 -16 37 -23 77 -27 172 l-6 125 -275 0 -274 0 4 -257z" fill="#6366f1"/>
</g>
</svg>